<?xml version="1.0" encoding="UTF-8" standalone="no"?><!DOCTYPE svg PUBLIC "-//W3C//DTD SVG 1.1//EN" "http://www.w3.org/Graphics/SVG/1.1/DTD/svg11.dtd"><svg width="100%" height="100%" viewBox="0 0 125 125" version="1.1" xmlns="http://www.w3.org/2000/svg" xmlns:xlink="http://www.w3.org/1999/xlink" xml:space="preserve" xmlns:serif="http://www.serif.com/" style="fill-rule:evenodd;clip-rule:evenodd;stroke-linejoin:round;stroke-miterlimit:2;"><path d="M62.5,1.543c-34.531,0 -62.5,27.969 -62.5,62.5c-0.007,13.121 4.118,25.91 11.789,36.555c7.671,10.644 18.499,18.602 30.949,22.745c3.125,0.544 4.293,-1.331 4.293,-2.975c0,-1.481 -0.081,-6.4 -0.081,-11.637c-15.7,2.894 -19.762,-3.825 -21.012,-7.344c-0.707,-1.8 -3.75,-7.344 -6.407,-8.831c-2.187,-1.169 -5.312,-4.063 -0.081,-4.138c4.925,-0.081 8.438,4.532 9.613,6.407c5.625,9.45 14.612,6.793 18.2,5.156c0.55,-4.063 2.187,-6.794 3.987,-8.356c-13.906,-1.563 -28.437,-6.957 -28.437,-30.863c-0,-6.8 2.418,-12.419 6.406,-16.8c-0.625,-1.562 -2.813,-7.969 0.625,-16.563c-0,0 5.231,-1.637 17.187,6.413c5.088,-1.412 10.345,-2.123 15.625,-2.113c5.313,0 10.625,0.7 15.625,2.107c11.95,-8.125 17.188,-6.4 17.188,-6.4c3.437,8.593 1.25,15 0.625,16.562c3.981,4.375 6.406,9.919 6.406,16.794c0,23.988 -14.606,29.3 -28.512,30.863c2.262,1.95 4.218,5.7 4.218,11.562c0,8.356 -0.081,15.075 -0.081,17.188c0,1.637 1.175,3.587 4.3,2.962c12.406,-4.189 23.187,-12.162 30.825,-22.799c7.637,-10.637 11.746,-23.401 11.75,-36.495c0,-34.531 -27.969,-62.5 -62.5,-62.5Z" style="fill:#fff;fill-rule:nonzero;"/></svg>