<?xml version="1.0" encoding="UTF-8" standalone="no"?><!DOCTYPE svg PUBLIC "-//W3C//DTD SVG 1.1//EN" "http://www.w3.org/Graphics/SVG/1.1/DTD/svg11.dtd"><svg width="100%" height="100%" viewBox="0 0 434 435" version="1.1" xmlns="http://www.w3.org/2000/svg" xmlns:xlink="http://www.w3.org/1999/xlink" xml:space="preserve" xmlns:serif="http://www.serif.com/" style="fill-rule:evenodd;clip-rule:evenodd;stroke-linejoin:round;stroke-miterlimit:2;"><path d="M216.521,0c-119.088,0 -216.521,97.433 -216.521,216.521c0,120.071 97.433,217.508 216.521,217.508c120.071,0 216.521,-97.437 216.521,-217.508c0.987,-119.088 -96.45,-216.521 -216.521,-216.521Zm132.867,112.196l-141.721,233.254c-4.925,7.875 -12.796,13.779 -22.638,13.779l-2.954,0c-8.858,0 -16.729,-3.937 -22.637,-9.841l-71.846,-83.659c-10.825,-11.808 -9.842,-30.508 2.954,-41.333c11.808,-10.825 31.492,-9.842 41.337,2.95l46.255,53.15l120.07,-198.808c8.859,-13.78 26.575,-18.7 40.355,-9.842c14.762,7.875 18.695,26.575 10.825,40.35Z" style="fill:#93f54d;fill-rule:nonzero;"/></svg>