<?xml version="1.0" encoding="UTF-8" standalone="no"?><!DOCTYPE svg PUBLIC "-//W3C//DTD SVG 1.1//EN" "http://www.w3.org/Graphics/SVG/1.1/DTD/svg11.dtd"><svg width="100%" height="100%" viewBox="0 0 125 125" version="1.1" xmlns="http://www.w3.org/2000/svg" xmlns:xlink="http://www.w3.org/1999/xlink" xml:space="preserve" xmlns:serif="http://www.serif.com/" style="fill-rule:evenodd;clip-rule:evenodd;stroke-linejoin:round;stroke-miterlimit:2;"><path d="M62.5,0c-34.583,0 -62.5,27.917 -62.5,62.5c0,34.583 27.917,62.5 62.5,62.5c34.583,0 62.5,-27.917 62.5,-62.5c0,-34.583 -27.917,-62.5 -62.5,-62.5Zm-34.583,22.917c1.666,-1.25 3.75,-2.084 5.416,-2.084c1.667,0 4.167,0.834 5.417,2.084c1.25,1.666 2.083,3.333 2.083,5.416c0,2.084 -0.833,4.167 -2.5,5.417c-0.833,1.667 -2.916,2.5 -5,2.5c-2.083,0 -4.166,-0.833 -5.416,-2.083c-1.25,-1.667 -2.084,-3.75 -2.084,-5.834c0,-2.083 0.834,-3.75 2.084,-5.416Zm13.333,67.083l-15.417,0l0,-47.917l15.417,0l0,47.917Zm58.333,0l-15.833,0l0,-25.417c0,-15.416 -18.333,-14.166 -18.333,0l-0,25.417l-15,0l-0,-47.917l15.416,0l0,6.25c6.25,-11.666 33.75,-12.5 33.75,11.25l0,30.417Z" style="fill:#fff;fill-rule:nonzero;"/></svg>