<?xml version="1.0" encoding="UTF-8" standalone="no"?><!DOCTYPE svg PUBLIC "-//W3C//DTD SVG 1.1//EN" "http://www.w3.org/Graphics/SVG/1.1/DTD/svg11.dtd"><svg width="100%" height="100%" viewBox="0 0 125 125" version="1.1" xmlns="http://www.w3.org/2000/svg" xmlns:xlink="http://www.w3.org/1999/xlink" xml:space="preserve" xmlns:serif="http://www.serif.com/" style="fill-rule:evenodd;clip-rule:evenodd;stroke-linejoin:round;stroke-miterlimit:2;"><path d="M62.5,0c-34.583,0 -62.5,27.917 -62.5,62.5c0,34.583 27.917,62.5 62.5,62.5c34.583,0 62.5,-27.917 62.5,-62.5c0,-34.583 -27.917,-62.5 -62.5,-62.5Zm37.5,85.833c0,2.084 -1.667,3.75 -3.75,3.75l-67.083,0c-2.5,0 -4.167,-2.083 -4.167,-4.166l0,-40.417l37.5,19.583l37.5,-19.583l0,40.833Zm0,-45.416l-37.5,19.583l-37.5,-19.583l0,-0.834c0,-2.083 1.667,-4.166 4.167,-4.166l66.666,-0c2.5,-0 4.167,2.083 4.167,4.166l0,0.834Z" style="fill:#fff;fill-rule:nonzero;"/></svg>